<?xml version="1.0" encoding="utf-8"?>
<!-- Generator: Adobe Illustrator 16.0.0, SVG Export Plug-In . SVG Version: 6.00 Build 0)  -->
<!DOCTYPE svg PUBLIC "-//W3C//DTD SVG 1.1//EN" "http://www.w3.org/Graphics/SVG/1.1/DTD/svg11.dtd">
<svg version="1.1" id="Layer_1" xmlns="http://www.w3.org/2000/svg" xmlns:xlink="http://www.w3.org/1999/xlink" x="0px" y="0px"
	 width="14px" height="14px" viewBox="0 0 14 14" enable-background="new 0 0 14 14" xml:space="preserve">
<g>
	<g>
		<path fill="#FFFFFF" d="M7,1c3.309,0,6,2.691,6,6s-2.691,6-6,6s-6-2.691-6-6S3.691,1,7,1 M7,0C3.14,0,0,3.141,0,7s3.14,7,7,7
			c3.859,0,7-3.141,7-7S10.859,0,7,0L7,0z"/>
	</g>
	<g>
		<path fill="#FFFFFF" d="M7,2.923c-0.393,0-0.711,0.318-0.711,0.711v3.743c0,0.394,0.318,0.711,0.711,0.711
			s0.711-0.317,0.711-0.711V3.634C7.711,3.241,7.393,2.923,7,2.923L7,2.923z"/>
	</g>
	<g>
		<path fill="#FFFFFF" d="M7,9.604c-0.393,0-0.711,0.318-0.711,0.711S6.607,11.026,7,11.026s0.711-0.318,0.711-0.711
			S7.393,9.604,7,9.604L7,9.604z"/>
	</g>
</g>
</svg>
